<?xml version="1.0" standalone="no"?>
<!DOCTYPE svg PUBLIC "-//W3C//DTD SVG 20010904//EN"
 "http://www.w3.org/TR/2001/REC-SVG-20010904/DTD/svg10.dtd">
<svg version="1.0" xmlns="http://www.w3.org/2000/svg"
 width="3125.000000pt" height="3125.000000pt" viewBox="0 0 3125.000000 3125.000000"
 preserveAspectRatio="xMidYMid meet">

<g transform="translate(0.000000,3125.000000) scale(0.100000,-0.100000)"
fill="#000000" stroke="none">
<path d="M5186 30444 c-801 -103 -1480 -522 -1921 -1184 -87 -131 -227 -407
-280 -554 -80 -217 -134 -465 -155 -706 -13 -157 -14 -22331 0 -22560 92
-1553 872 -2932 2155 -3812 656 -449 1429 -735 2225 -823 314 -34 572 -36
5055 -33 l4430 3 0 1780 0 1780 -4565 5 -4565 5 -97 23 c-589 136 -1013 610
-1077 1204 -8 66 -11 1137 -11 3337 l0 3240 2798 4 c2561 3 2804 4 2885 19
311 59 553 164 785 337 457 344 711 851 712 1421 0 566 -248 1068 -699 1414
-263 201 -564 320 -903 356 -58 6 -1120 10 -2837 10 l-2744 0 5 7375 6 7375
-547 -1 c-404 -1 -574 -5 -655 -15z"/>
<path d="M9530 28680 l0 -1780 7068 -3 c6403 -3 7075 -5 7148 -19 181 -36 387
-125 539 -233 296 -211 498 -531 562 -890 17 -96 18 -533 18 -10130 0 -9597
-1 -10034 -18 -10130 -102 -568 -530 -1005 -1098 -1122 -77 -15 -234 -17
-1996 -20 l-1913 -4 0 -1779 0 -1780 1923 0 c1915 0 2039 2 2327 36 886 104
1775 476 2474 1037 852 682 1436 1583 1710 2637 80 311 125 605 146 955 14
236 14 20081 0 20335 -46 845 -302 1653 -749 2363 -515 816 -1283 1485 -2153
1873 -548 244 -1077 378 -1677 424 -91 7 -2459 10 -7223 10 l-7088 0 0 -1780z"/>
</g>
</svg>
